<svg width="65" height="250" viewBox="0 0 65 250" fill="none" xmlns="http://www.w3.org/2000/svg">
<path d="M0.805969 1.42023C0.805969 0.948823 0.805969 0.71312 0.952416 0.566674C1.09886 0.420227 1.33456 0.420227 1.80597 0.420227H19.4207C19.8921 0.420227 20.1278 0.420227 20.2743 0.566674C20.4207 0.71312 20.4207 0.948823 20.4207 1.42023V135.197C20.4207 135.668 20.4207 135.904 20.2743 136.05C20.1278 136.197 19.8921 136.197 19.4207 136.197H0.805969V1.42023Z" fill="#D9D9D9"/>
<path d="M0.805969 116.526C0.805969 116.055 0.805969 115.819 0.952416 115.672C1.09886 115.526 1.33456 115.526 1.80597 115.526H64.4414V135.197C64.4414 135.668 64.4414 135.904 64.295 136.05C64.1485 136.197 63.9128 136.197 63.4414 136.197H0.805969V116.526Z" fill="#D9D9D9"/>
<path d="M44.2418 116.526C44.2418 116.055 44.2418 115.819 44.3882 115.672C44.5347 115.526 44.7704 115.526 45.2418 115.526H64.4414V248.278C64.4414 248.75 64.4414 248.985 64.295 249.132C64.1485 249.278 63.9128 249.278 63.4414 249.278H45.2418C44.7704 249.278 44.5347 249.278 44.3882 249.132C44.2418 248.985 44.2418 248.75 44.2418 248.278V116.526Z" fill="#D9D9D9"/>
<path d="M0.805969 158.535C0.805969 158.063 0.805969 157.828 0.952416 157.681C1.09886 157.535 1.33456 157.535 1.80597 157.535H23.2031C23.6745 157.535 23.9102 157.535 24.0567 157.681C24.2031 157.828 24.2031 158.063 24.2031 158.535V195.727C24.2031 196.198 24.2031 196.434 24.0567 196.58C23.9102 196.727 23.6745 196.727 23.2031 196.727H1.80597C1.33456 196.727 1.09886 196.727 0.952416 196.58C0.805969 196.434 0.805969 196.198 0.805969 195.727V158.535Z" fill="#D9D9D9"/>
<path d="M41.0443 56.636C41.0443 56.1646 41.0443 55.9288 41.1907 55.7824C41.3371 55.636 41.5728 55.636 42.0443 55.636H63.4414C63.9128 55.636 64.1485 55.636 64.295 55.7824C64.4414 55.9288 64.4414 56.1646 64.4414 56.636V93.8281C64.4414 94.2995 64.4414 94.5352 64.295 94.6816C64.1485 94.8281 63.9128 94.8281 63.4414 94.8281H42.0443C41.5728 94.8281 41.3371 94.8281 41.1907 94.6816C41.0443 94.5352 41.0443 94.2995 41.0443 93.8281V56.636Z" fill="#D9D9D9"/>
</svg>
